<mxfile host="app.diagrams.net" modified="2023-05-18T13:13:39.866Z" agent="Mozilla/5.0 (Windows NT 10.0; Win64; x64) AppleWebKit/537.36 (KHTML, like Gecko) Chrome/113.0.0.0 Safari/537.36" etag="2p4qY9Oe97AlrQjHThVr" version="21.3.2" type="github">
  <diagram name="Страница 1" id="qyMJKA6wbGwcwe2PbERa">
    <mxGraphModel dx="183" dy="103" grid="1" gridSize="1" guides="1" tooltips="1" connect="1" arrows="1" fold="1" page="1" pageScale="1" pageWidth="827" pageHeight="1169" math="0" shadow="0">
      <root>
        <mxCell id="0" />
        <mxCell id="1" parent="0" />
        <mxCell id="09WcuCSgEutDgm5XiJ9v-3" value="" style="group" vertex="1" connectable="0" parent="1">
          <mxGeometry x="542" y="357" width="30" height="30" as="geometry" />
        </mxCell>
        <mxCell id="09WcuCSgEutDgm5XiJ9v-1" value="" style="ellipse;whiteSpace=wrap;html=1;aspect=fixed;fillColor=none;strokeWidth=0;movable=0;resizable=0;rotatable=0;deletable=0;editable=0;locked=1;connectable=0;" vertex="1" parent="09WcuCSgEutDgm5XiJ9v-3">
          <mxGeometry width="30" height="30" as="geometry" />
        </mxCell>
        <mxCell id="mXehWSmkrtnXyW8H-YC_-2" value="" style="rounded=0;whiteSpace=wrap;html=1;strokeWidth=0;fillColor=#dae8fc;strokeColor=#6c8ebf;rotation=45;movable=0;resizable=0;rotatable=0;deletable=0;editable=0;locked=1;connectable=0;" parent="09WcuCSgEutDgm5XiJ9v-3" vertex="1">
          <mxGeometry x="4" y="4" width="6" height="5" as="geometry" />
        </mxCell>
        <mxCell id="mXehWSmkrtnXyW8H-YC_-3" value="" style="rounded=0;whiteSpace=wrap;html=1;strokeWidth=0;fillColor=#dae8fc;strokeColor=#6c8ebf;rotation=-15;movable=0;resizable=0;rotatable=0;deletable=0;editable=0;locked=1;connectable=0;" parent="09WcuCSgEutDgm5XiJ9v-3" vertex="1">
          <mxGeometry x="1" y="13" width="6" height="5" as="geometry" />
        </mxCell>
        <mxCell id="mXehWSmkrtnXyW8H-YC_-4" value="" style="rounded=0;whiteSpace=wrap;html=1;strokeWidth=0;fillColor=#dae8fc;strokeColor=#6c8ebf;rotation=-30;movable=0;resizable=0;rotatable=0;deletable=0;editable=0;locked=1;connectable=0;" parent="09WcuCSgEutDgm5XiJ9v-3" vertex="1">
          <mxGeometry x="4" y="20" width="6" height="5" as="geometry" />
        </mxCell>
        <mxCell id="mXehWSmkrtnXyW8H-YC_-5" value="" style="rounded=0;whiteSpace=wrap;html=1;strokeWidth=0;fillColor=#dae8fc;strokeColor=#6c8ebf;rotation=60;movable=0;resizable=0;rotatable=0;deletable=0;editable=0;locked=1;connectable=0;" parent="09WcuCSgEutDgm5XiJ9v-3" vertex="1">
          <mxGeometry x="16" y="21" width="6" height="5" as="geometry" />
        </mxCell>
        <mxCell id="mXehWSmkrtnXyW8H-YC_-8" value="" style="rounded=0;whiteSpace=wrap;html=1;strokeWidth=0;fillColor=#f8cecc;strokeColor=#b85450;rotation=-15;container=0;movable=0;resizable=0;rotatable=0;deletable=0;editable=0;locked=1;connectable=0;" parent="09WcuCSgEutDgm5XiJ9v-3" vertex="1">
          <mxGeometry x="17" y="8" width="11" height="6" as="geometry" />
        </mxCell>
        <mxCell id="09WcuCSgEutDgm5XiJ9v-2" value="vil" style="text;html=1;strokeColor=none;fillColor=none;align=center;verticalAlign=middle;whiteSpace=wrap;rounded=0;fontSize=6;movable=0;resizable=0;rotatable=0;deletable=0;editable=0;locked=1;connectable=0;" vertex="1" parent="09WcuCSgEutDgm5XiJ9v-3">
          <mxGeometry x="11" y="12" width="7" height="6" as="geometry" />
        </mxCell>
      </root>
    </mxGraphModel>
  </diagram>
</mxfile>
